[IMG]http://img404.imageshack.us/img404/9210/chroniclef.jpg[/IMG]
[code]
Chronicle 2012 TS XViD AC3-26K

Imdb: 
http://www.imdb.com/title/tt1430607/

Plot:
Three high school friends gain superpowers after making an incredible discovery. Soon, though, they 

find their lives spinning out of control and their bond tested as they embrace their darker sides.

Sources:
VIDEO-LUMX1
AUDIO-MISTERE
THNXS TO BOTH!

Notes:
video is okay bit dark !... the audio is great :) so enjoy!
added a few filters to the video to make it look nice so take it or leave it !

Greetz:
Xtreme 

Encode|FYA|ILLUMANTI|CM8|RX|VISION|HDSCENE|NIGHTMAREZ|xTriLL|DTRG|CRYS|REMIXHD|BIDA|RX|REFILL|INSPiRAL

|SIC|ZOMBIESZ|HOPE|Anonymous|GooN
To all the people who have helped me :P you know who you are

Anything to offer email us @: 26k@hushmail.me

Video
ID                                       : 0
Format                                   : MPEG-4 Visual
Format profile                           : Advanced Simple@L5
Format settings, BVOP                    : 2
Format settings, QPel                    : No
Format settings, GMC                     : No warppoints
Format settings, Matrix                  : Default (H.263)
Codec ID                                 : XVID
Codec ID/Hint                            : XviD
Duration                                 : 1h 15mn
Bit rate                                 : 1 797 Kbps
Width                                    : 720 pixels
Height                                   : 304 pixels
Display aspect ratio                     : 2.35:1
Frame rate                               : 25.000 fps
Color space                              : YUV
Chroma subsampling                       : 4:2:0
Bit depth                                : 8 bits
Scan type                                : Progressive
Compression mode                         : Lossy
Bits/(Pixel*Frame)                       : 0.328
Stream size                              : 969 MiB (90%)
Writing library                          : XviD 63

Audio
ID                                       : 1
Format                                   : AC-3
Format/Info                              : Audio Coding 3
Mode extension                           : CM (complete main)
Codec ID                                 : 2000
Duration                                 : 1h 15mn
Bit rate mode                            : Constant
Bit rate                                 : 192 Kbps
Channel(s)                               : 2 channels
Channel positions                        : Front: L R
Sampling rate                            : 44.1 KHz
Bit depth                                : 16 bits
Compression mode                         : Lossy
Stream size                              : 104 MiB (10%)
Alignment                                : Aligned on interleaves
Interleave, duration                     : 35 ms (0.87 video frame)


[/code]
Screens:
[IMG]http://img263.imageshack.us/img263/5913/vlcsnap2012020600h41m12.png[/IMG]
[IMG]http://img859.imageshack.us/img859/6303/vlcsnap2012020600h41m06.png[/IMG]
[IMG]http://img72.imageshack.us/img72/6232/vlcsnap2012020600h40m50.png[/IMG]
[IMG]http://img59.imageshack.us/img59/7046/vlcsnap2012020600h40m46.png[/IMG]

[img]http://img851.imageshack.us/img851/5503/26ks.jpg[/img]
Thank you smallz for banner!